PathFileType	4	(X/Y/Z)	C:\Users\chris\Documents\GitHub\baseballds\vids\pitch5_Sports2D\pitch5_Sports2D_m_person00.trc
DataRate	CameraRate	NumFrames	NumMarkers	Units	OrigDataRate	OrigDataStartFrame	OrigNumFrames
30	30	11	22	m	30	18	149
Frame#	Time	Hip			RHip			RKnee			RAnkle			RBigToe			RSmallToe			RHeel			LHip			LKnee			LAnkle			LBigToe			LSmallToe			LHeel			Neck			Head			Nose			RShoulder			RElbow			RWrist			LShoulder			LElbow			LWrist		
		X1	Y1	Z1	X2	Y2	Z2	X3	Y3	Z3	X4	Y4	Z4	X5	Y5	Z5	X6	Y6	Z6	X7	Y7	Z7	X8	Y8	Z8	X9	Y9	Z9	X10	Y10	Z10	X11	Y11	Z11	X12	Y12	Z12	X13	Y13	Z13	X14	Y14	Z14	X15	Y15	Z15	X16	Y16	Z16	X17	Y17	Z17	X18	Y18	Z18	X19	Y19	Z19	X20	Y20	Z20	X21	Y21	Z21	X22	Y22	Z22
18	0.6	1.4919692042575057	0.9904587830036546	0.0	1.3836851405372232	0.9387959439910017	0.0	1.4153664598377804	0.5195082226846727	0.0	1.4378360299835884	0.15071671902282502	0.0	1.4639426181578612	0.01797884974823848	0.0	1.3906620205409366	0.017865056847274786	0.0	1.4580782844397706	0.10194322659314896	0.0	1.6029898549377068	0.9549352456994711	0.0	1.6872112866129798	0.5536312072522189	0.0	1.7970202650040978	0.21283199983003534	0.0	1.7346545997602199	0.06230638877990124	0.0	1.8107745237302844	0.06777861387583253	0.0	1.8272707315228356	0.15880963424659658	0.0	1.4303238738181963	1.596081414102796	0.0	1.4620189727431823	1.8482984203457453	0.0	1.502662645161279	1.6562683077719431	0.0	1.2256546110238065	1.4914948590096693	0.0	1.2055265257936092	1.2012485603333727	0.0	1.3524330390527772	1.2619149926681419	0.0	1.6309514705464168	1.5299948688185494	0.0	1.69723486818975	1.2185452772025762	0.0	1.6178560313072319	1.2053983533289176	0.0
19	0.6333333333333333	1.4930586764838043	0.9874794011518171	0.0	1.384925501166796	0.9367248476890626	0.0	1.4157508105673557	0.5198480695402454	0.0	1.4379248917226881	0.1492709066718006	0.0	1.4668497980799509	0.01566113012627286	0.0	1.3932147510799735	0.014851950946493022	0.0	1.4575594993673147	0.10209162202771953	0.0	1.6048031658523507	0.9530597826987296	0.0	1.6886130835580795	0.5512982183566512	0.0	1.8025266369700883	0.20809884728927466	0.0	1.7295330830465547	0.05729283618925015	0.0	1.806802976676875	0.06105431813789857	0.0	1.834850297029378	0.15302414505886222	0.0	1.433311513798836	1.5908568223498636	0.0	1.4638935469883663	1.8468497925121659	0.0	1.5062219751154968	1.65530339829221	0.0	1.2290741523375788	1.48944222833448	0.0	1.207312733672347	1.200935980188273	0.0	1.3524525141644512	1.2627630121747782	0.0	1.6336111380184655	1.5274524964193172	0.0	1.7013579940853933	1.2160025697491084	0.0	1.6176975587788924	1.2086540077304702	0.0
20	0.6666666666666666	1.4956316129625515	0.9833010276763876	0.0	1.3873566846448304	0.9342102361697151	0.0	1.4163297117692195	0.5190915078720955	0.0	1.4388114663385168	0.14871212142508244	0.0	1.4699022671140065	0.01425441587622824	0.0	1.3959011097632725	0.014460909123584874	0.0	1.4565256141692637	0.10319359986187447	0.0	1.6079914322700049	0.9493527706066792	0.0	1.6906180682791478	0.5472637292375903	0.0	1.8070626817599542	0.20161408000060707	0.0	1.725739011864352	0.05083803676873399	0.0	1.802656202004298	0.05423421049852943	0.0	1.8401524281314046	0.14487409548140548	0.0	1.4380676941263602	1.5850452134839295	0.0	1.4667488547104117	1.8444147129235182	0.0	1.5114185205417652	1.6564088932182421	0.0	1.2334968788824971	1.4867384035350857	0.0	1.2104253552121051	1.1993817663477724	0.0	1.3550363361052817	1.2633740737469126	0.0	1.6384847677841807	1.5236929086993123	0.0	1.7053416166774984	1.2125828731787034	0.0	1.6171268477249654	1.2143810469261944	0.0
21	0.7	1.4996504252032354	0.9788798432135049	0.0	1.3911494444017505	0.9299516128969665	0.0	1.4183212024241114	0.5174880194640491	0.0	1.4397949732339983	0.1485408308020232	0.0	1.4719172955888815	0.015347077332523917	0.0	1.3981407559508656	0.016214057066048886	0.0	1.4552956975446547	0.10240041453695678	0.0	1.6120266729587618	0.9444590581744011	0.0	1.6935917190185719	0.5431777668749275	0.0	1.8096290216975826	0.19782690630885186	0.0	1.7278571388217103	0.04795908452413187	0.0	1.802998335242658	0.05088373666849909	0.0	1.8423076465617152	0.14047256450051868	0.0	1.4424725099691085	1.5806292882532442	0.0	1.4717036344135745	1.842756635995031	0.0	1.5209757200204845	1.6595028210365592	0.0	1.2395944698764314	1.4836481019576055	0.0	1.2152951973635076	1.1975088519972026	0.0	1.358626719675236	1.2638960371569863	0.0	1.64468782466657	1.5198530606310932	0.0	1.7099102564163222	1.2082479674473945	0.0	1.6167459335890622	1.2214082620365674	0.0
22	0.7333333333333333	1.5035090444066597	0.9765711726769313	0.0	1.395272809536093	0.9263655312681404	0.0	1.4218561670911964	0.5150960588226439	0.0	1.4408500111286862	0.14718797930934754	0.0	1.4727126563548831	0.0155205816151215	0.0	1.3995316651907561	0.017027587172322767	0.0	1.455055289244471	0.09881783775271463	0.0	1.6156191823148367	0.9408217357741191	0.0	1.6964817999037314	0.5400493952666637	0.0	1.8104806373963347	0.19585145236020157	0.0	1.7319938821948706	0.04680560413143173	0.0	1.8065339751218503	0.04864356672260977	0.0	1.8427903060347277	0.1389448677373105	0.0	1.4455066920415	1.57771654770015	0.0	1.4791017339347028	1.8431096414224037	0.0	1.535594992159621	1.6643353307787851	0.0	1.246357823167332	1.48075821023653	0.0	1.2217707491551766	1.1954878736971357	0.0	1.3626645366279226	1.2646305741116857	0.0	1.6514959114060361	1.5161834819795612	0.0	1.7124356803086098	1.2015777413120259	0.0	1.6136314392547535	1.2240926969239296	0.0
23	0.7666666666666666	1.5060947927025148	0.9760005834818701	0.0	1.3988899808327553	0.9252793282678345	0.0	1.4260908277435989	0.511950276144981	0.0	1.4426043611807151	0.14388429324792743	0.0	1.471638225125265	0.01138517469807001	0.0	1.3991227948726463	0.015143124807964422	0.0	1.4569419053051667	0.09498856561807936	0.0	1.618664440706517	0.9391469050319884	0.0	1.6983707037967515	0.5375723917447898	0.0	1.8102245648886135	0.19213902316845902	0.0	1.7334370997641613	0.043804279483504086	0.0	1.8095378195511402	0.04530196309221988	0.0	1.8429520941144466	0.135484623925288	0.0	1.4475608914869555	1.576160683506327	0.0	1.4884678297671066	1.8453210142970249	0.0	1.5534750304851155	1.6707681232846028	0.0	1.2519267841649446	1.4790520934055886	0.0	1.2293746955566547	1.1923990309749428	0.0	1.366249532845346	1.2653603438148515	0.0	1.6574670465556909	1.5130802557824805	0.0	1.7119545122073307	1.194710253086729	0.0	1.6088677077516973	1.219418345162248	0.0
24	0.8	1.5089360035539416	0.9742996117920723	0.0	1.4027980362374568	0.9243652226648923	0.0	1.4298776157382314	0.5092003615883739	0.0	1.4446152194369737	0.139644633243869	0.0	1.4684332117775407	0.005963000208753019	0.0	1.3968371319389248	0.012032969378092504	0.0	1.460464325697287	0.09240645975658095	0.0	1.6222152336839135	0.9377635048864952	0.0	1.7002317610628015	0.5352189048944711	0.0	1.8099778511959292	0.1863581401125674	0.0	1.7335449558018783	0.04078620754452137	0.0	1.811578832792717	0.04237983222590429	0.0	1.8431615567288335	0.1295103414431052	0.0	1.4500916447973253	1.5762756762317147	0.0	1.4990666733859854	1.8478366695532413	0.0	1.5711157645333993	1.6777606786185746	0.0	1.2559102380261424	1.4789747762773269	0.0	1.2370757764666536	1.189183815086796	0.0	1.3687836028973301	1.2654312134893917	0.0	1.6614442924208737	1.5104517251588088	0.0	1.7122268709336428	1.1917281412329566	0.0	1.6091209933204869	1.2118884802576815	0.0
25	0.8333333333333334	1.51372355018396	0.971332542960534	0.0	1.4074129582137092	0.922047360177192	0.0	1.4327135961470667	0.5075771003025485	0.0	1.4457166717675078	0.1362956640588678	0.0	1.465678139542093	0.00425550776208413	0.0	1.394566807447825	0.009706410466816126	0.0	1.4634456510330227	0.0900433624013543	0.0	1.626442408214527	0.936026026891952	0.0	1.7036406024164814	0.5329988722606646	0.0	1.8109777967899612	0.18124579211508518	0.0	1.734846265172957	0.039947320683712484	0.0	1.813801087994862	0.040969039006688496	0.0	1.843882525094262	0.12432566083795772	0.0	1.4547188819402181	1.5777542839320124	0.0	1.5086940084214473	1.8495544271509778	0.0	1.5856464979810145	1.6841947423324797	0.0	1.2590565456371896	1.4800188681236586	0.0	1.242980200308831	1.1880364916540576	0.0	1.3717013616384013	1.2651881282201716	0.0	1.6644827053389786	1.508240737705775	0.0	1.7162879629643755	1.192484486352722	0.0	1.617159366307398	1.2087601962640084	0.0
26	0.8666666666666667	1.5195480053502466	0.9696879129227022	0.0	1.4118965884840267	0.9208451508652644	0.0	1.435140436033543	0.50556212632593	0.0	1.4461288696969992	0.13448328050212144	0.0	1.4666459571857378	0.004801439831908563	0.0	1.3943059781470941	0.007692107515470031	0.0	1.4649126293064894	0.08753772855745463	0.0	1.630443444284602	0.9353384400722623	0.0	1.7081994283074236	0.5312363156826495	0.0	1.8128673827843387	0.17752165500848913	0.0	1.7360387152400432	0.038301845968587225	0.0	1.815086591678431	0.039310571023149	0.0	1.845510995465264	0.1206416822157999	0.0	1.4615626263827357	1.579897125949307	0.0	1.5154086589926654	1.850966567049302	0.0	1.5975295248142445	1.6898172541084704	0.0	1.262574698104766	1.4816757532754252	0.0	1.2453662101702787	1.1886635493991817	0.0	1.3781722275743071	1.2657799055277674	0.0	1.6685688851369809	1.5080085635417748	0.0	1.7222490703597877	1.1935219844181704	0.0	1.6276004737225152	1.210892789604063	0.0
27	0.9	1.5243605469298867	0.9703848443139782	0.0	1.4159431226648673	0.9227101762007283	0.0	1.437990556262357	0.5018917689684839	0.0	1.4471216914175844	0.13254376420643293	0.0	1.469895049335721	0.002649271150612931	0.0	1.3950418614946305	0.004734425890074759	0.0	1.4667597943011395	0.08452063173907817	0.0	1.6341713054784397	0.9365847424970845	0.0	1.7117397703065538	0.5300066287747599	0.0	1.814402321891565	0.17343335337245094	0.0	1.7356719447456954	0.03326528308459031	0.0	1.8146497916555497	0.03590072354306979	0.0	1.8476791251888565	0.11615992498013351	0.0	1.468942379177588	1.582433450827616	0.0	1.519803510517489	1.8530887355215147	0.0	1.6091580632632196	1.6943278512617943	0.0	1.2682109693798236	1.4839374031440444	0.0	1.2443689818248196	1.1894056585818285	0.0	1.3892338045173778	1.266190233077921	0.0	1.6740890284098413	1.510272747620448	0.0	1.728005014357689	1.193911449165773	0.0	1.6349521015255353	1.2120665469270113	0.0
28	0.9333333333333333	1.5276965882627027	0.9714245586757527	0.0	1.419784564732501	0.9248353070663184	0.0	1.4416821128228214	0.4985700766386059	0.0	1.4488843730971717	0.12925319639924276	0.0	1.4711854763655583	-0.0014834444195124161	0.0	1.3947323142099712	0.002297796401564523	0.0	1.4698345147693705	0.07963151107939168	0.0	1.638409890815983	0.9381608746353345	0.0	1.7132313583799434	0.5284544398627666	0.0	1.815558603476467	0.16924768004880464	0.0	1.7355606844442446	0.02757747908467352	0.0	1.8146803157265832	0.03132949650167132	0.0	1.8495153108023137	0.11098404371691085	0.0	1.4753083834370992	1.5848675465557154	0.0	1.5237718432432747	1.8556266579908072	0.0	1.6207925416303826	1.6968281764468274	0.0	1.2766533967938003	1.48641256355896	0.0	1.242465916067993	1.1893276465493445	0.0	1.3994553817925894	1.2634045110229843	0.0	1.6795459692455195	1.512298873978147	0.0	1.7353232354722836	1.1957353626290195	0.0	1.6409398817994303	1.2084149496229584	0.0
